<?xml version="1.0" standalone="no"?>
<!DOCTYPE svg PUBLIC "-//W3C//DTD SVG 20010904//EN"
 "http://www.w3.org/TR/2001/REC-SVG-20010904/DTD/svg10.dtd">
<svg version="1.0" xmlns="http://www.w3.org/2000/svg"
 width="512.000000pt" height="512.000000pt" viewBox="0 0 512.000000 512.000000"
 preserveAspectRatio="xMidYMid meet">

<g transform="translate(0.000000,512.000000) scale(0.100000,-0.100000)"
fill="#000000" stroke="none">
<path d="M565 5106 c-149 -37 -260 -148 -300 -301 -13 -52 -15 -274 -15 -1860
0 -1586 2 -1808 15 -1860 43 -164 167 -278 332 -305 51 -9 1453 -15 1453 -7 0
2 -11 32 -25 68 -84 213 -117 533 -80 769 9 52 18 112 22 133 l6 37 -520 0
-520 0 -20 22 c-29 33 -35 57 -22 95 21 64 10 63 607 63 l538 0 37 78 c42 89
104 195 159 269 l38 52 -665 3 -665 3 -27 27 c-37 37 -37 89 0 126 l27 27 757
3 756 2 46 39 c270 223 627 350 984 351 l127 0 -2 473 -3 472 -400 5 c-380 5
-403 6 -452 27 -162 66 -263 177 -304 335 -17 64 -19 113 -19 470 l0 398 -907
-1 c-686 0 -920 -4 -958 -13z m1640 -2011 c38 -37 35 -95 -6 -129 l-31 -26
-604 0 c-670 0 -652 -2 -673 63 -14 41 -3 78 31 101 20 14 90 16 641 16 l618
0 24 -25z"/>
<path d="M2610 4683 c0 -158 5 -317 11 -353 17 -107 77 -188 174 -232 48 -22
61 -23 363 -26 171 -2 312 0 312 3 0 8 -839 889 -850 893 -6 2 -10 -104 -10
-285z"/>
<path d="M3369 2749 c-613 -51 -1126 -521 -1236 -1133 -22 -123 -22 -351 1
-476 50 -278 184 -535 385 -734 430 -428 1075 -526 1610 -245 301 158 542 433
655 749 279 773 -182 1621 -980 1809 -73 17 -311 45 -334 39 -3 0 -48 -4 -101
-9z m155 -823 c19 -8 37 -20 42 -27 5 -8 11 -108 14 -224 l5 -210 200 -2 c211
-3 235 -8 254 -50 18 -40 13 -73 -18 -104 l-29 -29 -206 0 -206 0 0 -204 c0
-189 -1 -205 -20 -229 -11 -14 -33 -28 -49 -32 -34 -7 -85 15 -101 44 -6 12
-10 102 -10 220 l0 201 -201 0 c-202 0 -229 4 -256 39 -22 28 -16 89 12 116
24 25 24 25 235 25 l210 0 0 208 c0 181 3 210 18 229 13 18 46 37 70 42 1 1
18 -5 36 -13z"/>
</g>
</svg>
